HIERARCHY
ROOT Hips
{
	OFFSET -14.64140 90.27770 -84.91600
	CHANNELS 6 Xposition Yposition Zposition Zrotation Xrotation Yrotation
	JOINT Spine
	{
		OFFSET 0.00000 13.20850 -1.60436
		CHANNELS 3 Zrotation Xrotation Yrotation
		JOINT Spine1
		{
			OFFSET 0.00000 8.61716 0.00000
			CHANNELS 3 Zrotation Xrotation Yrotation
			JOINT Spine2
			{
				OFFSET 0.00000 8.61717 0.00000
				CHANNELS 3 Zrotation Xrotation Yrotation
				JOINT Spine3
				{
					OFFSET 0.00000 8.61717 0.00000
					CHANNELS 3 Zrotation Xrotation Yrotation
					JOINT Neck
					{
						OFFSET 0.00000 11.07920 1.10792
						CHANNELS 3 Zrotation Xrotation Yrotation
						JOINT Neck1
						{
							OFFSET 0.00000 7.08032 0.00000
							CHANNELS 3 Zrotation Xrotation Yrotation
							JOINT Head
							{
								OFFSET 0.00000 7.08031 0.00000
								CHANNELS 3 Zrotation Xrotation Yrotation
								End site
								{
									OFFSET 0.00000 0.00000 0.00000
								}
							}
						}
					}
					JOINT RightShoulder
					{
						OFFSET -0.01000 7.91373 5.19711
						CHANNELS 3 Zrotation Xrotation Yrotation
						JOINT RightArm
						{
							OFFSET -18.41580 0.00000 0.00000
							CHANNELS 3 Zrotation Xrotation Yrotation
							JOINT RightForeArm
							{
								OFFSET -29.11090 0.00000 0.00000
								CHANNELS 3 Zrotation Xrotation Yrotation
								JOINT RightHand
								{
									OFFSET -24.65040 0.00000 0.00000
									CHANNELS 3 Zrotation Xrotation Yrotation
									JOINT RightHandThumb1
									{
										OFFSET -5.35114 -0.85590 3.97906
										CHANNELS 3 Zrotation Xrotation Yrotation
										JOINT RightHandThumb2
										{
											OFFSET -4.52789 0.00000 0.00000
											CHANNELS 3 Zrotation Xrotation Yrotation
											JOINT RightHandThumb3
											{
												OFFSET -2.46976 0.00000 0.00000
												CHANNELS 3 Zrotation Xrotation Yrotation
												End site
												{
													OFFSET 0.00000 0.00000 0.00000
												}
											}
										}
									}
									JOINT RightHandIndex1
									{
										OFFSET -14.26970 0.00000 2.88139
										CHANNELS 3 Zrotation Xrotation Yrotation
										JOINT RightHandIndex2
										{
											OFFSET -5.48836 0.00000 0.00000
											CHANNELS 3 Zrotation Xrotation Yrotation
											JOINT RightHandIndex3
											{
												OFFSET -3.01859 0.00000 0.00000
												CHANNELS 3 Zrotation Xrotation Yrotation
												End site
												{
													OFFSET 0.00000 0.00000 0.00000
												}
											}
										}
									}
									JOINT RightHandMiddle1
									{
										OFFSET -14.26970 0.00000 -0.09147
										CHANNELS 3 Zrotation Xrotation Yrotation
										JOINT RightHandMiddle2
										{
											OFFSET -6.17441 0.00000 0.00000
											CHANNELS 3 Zrotation Xrotation Yrotation
											JOINT RightHandMiddle3
											{
												OFFSET -3.56743 0.00000 0.00000
												CHANNELS 3 Zrotation Xrotation Yrotation
												End site
												{
													OFFSET 0.00000 0.00000 0.00000
												}
											}
										}
									}
									JOINT RightHandRing1
									{
										OFFSET -12.69180 0.00000 -3.06433
										CHANNELS 3 Zrotation Xrotation Yrotation
										JOINT RightHandRing2
										{
											OFFSET -5.62556 0.00000 0.00000
											CHANNELS 3 Zrotation Xrotation Yrotation
											JOINT RightHandRing3
											{
												OFFSET -3.56744 0.00000 0.00000
												CHANNELS 3 Zrotation Xrotation Yrotation
												End site
												{
													OFFSET 0.00000 0.00000 0.00000
												}
											}
										}
									}
									JOINT RightHandPinky1
									{
										OFFSET -11.11390 0.00000 -6.03719
										CHANNELS 3 Zrotation Xrotation Yrotation
										JOINT RightHandPinky2
										{
											OFFSET -4.52789 0.00000 0.00000
											CHANNELS 3 Zrotation Xrotation Yrotation
											JOINT RightHandPinky3
											{
												OFFSET -2.46976 0.00000 0.00000
												CHANNELS 3 Zrotation Xrotation Yrotation
												End site
												{
													OFFSET 0.00000 0.00000 0.00000
												}
											}
										}
									}
								}
							}
						}
					}
					JOINT LeftShoulder
					{
						OFFSET 0.01000 7.91373 5.19711
						CHANNELS 3 Zrotation Xrotation Yrotation
						JOINT LeftArm
						{
							OFFSET 18.41580 0.00000 0.00000
							CHANNELS 3 Zrotation Xrotation Yrotation
							JOINT LeftForeArm
							{
								OFFSET 29.11090 0.00000 0.00000
								CHANNELS 3 Zrotation Xrotation Yrotation
								JOINT LeftHand
								{
									OFFSET 24.65040 0.00000 0.00000
									CHANNELS 3 Zrotation Xrotation Yrotation
									JOINT LeftHandThumb1
									{
										OFFSET 5.35114 -0.85590 3.97906
										CHANNELS 3 Zrotation Xrotation Yrotation
										JOINT LeftHandThumb2
										{
											OFFSET 4.52789 0.00000 0.00000
											CHANNELS 3 Zrotation Xrotation Yrotation
											JOINT LeftHandThumb3
											{
												OFFSET 2.46977 0.00000 0.00000
												CHANNELS 3 Zrotation Xrotation Yrotation
												End site
												{
													OFFSET 0.00000 0.00000 0.00000
												}
											}
										}
									}
									JOINT LeftHandIndex1
									{
										OFFSET 14.26970 0.00000 2.88139
										CHANNELS 3 Zrotation Xrotation Yrotation
										JOINT LeftHandIndex2
										{
											OFFSET 5.48836 0.00000 0.00000
											CHANNELS 3 Zrotation Xrotation Yrotation
											JOINT LeftHandIndex3
											{
												OFFSET 3.01859 0.00000 0.00000
												CHANNELS 3 Zrotation Xrotation Yrotation
												End site
												{
													OFFSET 0.00000 0.00000 0.00000
												}
											}
										}
									}
									JOINT LeftHandMiddle1
									{
										OFFSET 14.26970 0.00000 -0.09147
										CHANNELS 3 Zrotation Xrotation Yrotation
										JOINT LeftHandMiddle2
										{
											OFFSET 6.17440 0.00000 0.00000
											CHANNELS 3 Zrotation Xrotation Yrotation
											JOINT LeftHandMiddle3
											{
												OFFSET 3.56744 0.00000 0.00000
												CHANNELS 3 Zrotation Xrotation Yrotation
												End site
												{
													OFFSET 0.00000 0.00000 0.00000
												}
											}
										}
									}
									JOINT LeftHandRing1
									{
										OFFSET 12.69180 0.00000 -3.06433
										CHANNELS 3 Zrotation Xrotation Yrotation
										JOINT LeftHandRing2
										{
											OFFSET 5.62556 0.00000 0.00000
											CHANNELS 3 Zrotation Xrotation Yrotation
											JOINT LeftHandRing3
											{
												OFFSET 3.56744 0.00000 0.00000
												CHANNELS 3 Zrotation Xrotation Yrotation
												End site
												{
													OFFSET 0.00000 0.00000 0.00000
												}
											}
										}
									}
									JOINT LeftHandPinky1
									{
										OFFSET 11.11390 0.00000 -6.03719
										CHANNELS 3 Zrotation Xrotation Yrotation
										JOINT LeftHandPinky2
										{
											OFFSET 4.52789 0.00000 0.00000
											CHANNELS 3 Zrotation Xrotation Yrotation
											JOINT LeftHandPinky3
											{
												OFFSET 2.46976 0.00000 0.00000
												CHANNELS 3 Zrotation Xrotation Yrotation
												End site
												{
													OFFSET 0.00000 0.00000 0.00000
												}
											}
										}
									}
								}
							}
						}
					}
					JOINT pCube4
					{
						OFFSET 0.00000 10.91090 1.10792
						CHANNELS 3 Zrotation Xrotation Yrotation
						End site
						{
							OFFSET 0.00000 0.00000 0.00000
						}
					}
				}
			}
		}
	}
	JOINT RightUpLeg
	{
		OFFSET -9.98441 0.00000 0.00000
		CHANNELS 3 Zrotation Xrotation Yrotation
		JOINT RightLeg
		{
			OFFSET 0.00000 -42.11790 0.00000
			CHANNELS 3 Zrotation Xrotation Yrotation
			JOINT RightFoot
			{
				OFFSET 0.00000 -45.00020 -0.00001
				CHANNELS 3 Zrotation Xrotation Yrotation
				JOINT RightForeFoot
				{
					OFFSET 0.00000 -3.74820 0.00000
					CHANNELS 3 Zrotation Xrotation Yrotation
					JOINT RightToeBase
					{
						OFFSET 0.00000 0.06325 14.43120
						CHANNELS 3 Zrotation Xrotation Yrotation
						End site
						{
							OFFSET 0.00000 0.00000 0.00000
						}
					}
				}
			}
		}
	}
	JOINT LeftUpLeg
	{
		OFFSET 9.98441 0.00000 0.00000
		CHANNELS 3 Zrotation Xrotation Yrotation
		JOINT LeftLeg
		{
			OFFSET 0.00000 -42.11800 0.00000
			CHANNELS 3 Zrotation Xrotation Yrotation
			JOINT LeftFoot
			{
				OFFSET 0.00000 -45.00070 0.00000
				CHANNELS 3 Zrotation Xrotation Yrotation
				JOINT LeftForeFoot
				{
					OFFSET 0.00000 -3.74824 0.00000
					CHANNELS 3 Zrotation Xrotation Yrotation
					JOINT LeftToeBase
					{
						OFFSET 0.00000 0.06325 14.43110
						CHANNELS 3 Zrotation Xrotation Yrotation
						End site
						{
							OFFSET 0.00000 0.00000 0.00000
						}
					}
				}
			}
		}
	}
}
MOTION
Frames: 4
Frame Time: 0.050000
-0.02103992207836095 0.011917060296553733 -0.0007075537361429288 0.022438500406211984 0.006644474688486514 0.004832430304374934 -3.992525850988312 0.6904218025565146 -0.7565337393794012 -1.101936322477681 3.5664022804917623 0.40735853714646253 -1.23073510770818 -2.409210301491147 -2.236931016647231 -1.5797726078029712 0.26351053210901265 -0.8893405463470562 -1.3662465934690542 13.201152751652954 5.142042524556538 0.39054581023067175 -0.16588482070044852 12.287695417996652 -1.0735891597976526 -15.556149437210957 0.9976396234930822 -6.4681980748105365 2.422514269177515 -15.49081665727212 68.25920383777462 13.860693667009814 -2.6539479136792132 -11.39443316607857 -2.630473328999847 90.47888184954961 25.87932006076701 -0.6112412010061727 -6.471553834484886 4.577727736262431 -0.09877834935367279 -1.6108523147036957 0.03968427461041682 0.036328107054075645 -56.26307247365555 0.014754994819738562 -0.037761455495640826 -56.19118233810725 -38.79951245684891 0.04040090781847723 -0.03906340386666083 -0.01922501104360408 -0.04738532712230999 -0.002940384196745583 -0.01068214882590913 -0.025752212936498528 0.0041950904188392335 -36.65966117436847 -0.04891493576834454 -0.014553813234233331 0.0052964651973280525 -0.04515637804945412 0.026344301575662605 0.031170560384923014 0.01975462828721228 -0.020579945082318196 -19.722541888685754 0.003932889282479808 -0.004714671075187981 -0.020920637937580366 -0.04801643485349021 -0.03989075451833338 -0.01356829318646585 0.02496564516370432 -0.026322109248682224 24.06585145217431 -0.032613848285412826 -0.03134278361230336 28.89422366126035 -0.037872042692178746 -0.04649380015318471 28.905201639797344 0.003983085962199367 0.03271625776350004 9.457297204065116 2.081400267860402 12.971047680859153 -70.8122005058683 31.13076273238298 -9.483279331829797 -12.70300423403702 -9.682763316288426 -64.50357652927113 -12.481043586581281 -2.945545769005358 3.8316018765633757 -0.4296996395937495 0.11416404794703015 -8.144013237747744 -0.0023511367937303026 -0.012998692978055865 44.615943170762385 0.04286845667573039 0.0278119880257159 44.52385888950613 12.45742330048781 -0.030339206942792143 0.02437617500169587 -0.010553268737141413 -0.008514307395353811 -0.027719443208908883 -0.010434786465226449 0.027633058767896932 0.0022550406619355726 11.081260895157177 0.014419486367498995 0.016479284672357597 0.006585887702225841 -0.04815188718673529 0.03291798740555027 0.005972714131384945 -0.023446218154403568 -0.020767286330426866 4.821026120838857 -0.016935489544344155 0.02571702574710897 -0.0037766841850526344 -0.001991387363521985 0.029578073498787154 0.015103173994539016 -0.012099122703111864 0.014743626119846328 -5.632845518059633 0.004982131114454345 -0.026097888701108823 -6.73306317811393 0.04920669844742785 0.03822351145875258 -6.749090449059893 -0.04198773393513516 -0.0044928993643466005 -0.016308467206069058 0.026509477374403335 -0.024224913657431183 8.056533841560173 3.467533526334642 -19.21493665952757 0.01408018268950426 10.420165127228307 0.04497671051112627 -5.650390870974549 -15.643804444651089 3.1688372681591224 0.024858316838109674 0.0060718264031242595 -0.01597479399550441 0.010428831016549928 4.680299254945579 0.034472496351697246 12.49693240049436 -8.206049433950078 6.918801405156546 -8.38266508053144e-05 46.413183286461994 -0.022063482806610316 -4.362899092020027 -14.780524015377917 -3.8012008152857613 0.00035377555342075076 0.04421765376989264 0.004814429917153904 0.03661745826666538 -10.726796874868334 -0.004198740654989087 
-0.047061974140615456 0.012039821123966704 -0.020555003898776972 0.049084459510032485 -0.00030206758586737983 -0.004753957406437956 -3.7556603308319763 0.6002657285305949 -0.7285279895604846 -1.0396359081009745 3.5733693072426034 0.3925558249848696 -1.2180974948778474 -2.400040401974978 -2.328857907603973 -1.5066976326336041 0.19292150644402528 -0.9104591972967419 -1.3214219945152212 13.318959894545127 5.116620494261898 0.4549035363721854 0.07202559414766763 12.401887188392267 -1.1018160988361172 -15.17265626146793 0.9962558756420262 -6.473173977609685 2.4384470462089274 -15.449407567373077 67.53539217509415 14.932482471547052 -2.1709338080697966 -14.765104325578799 -2.958183048181453 91.17983142498758 26.027273847707182 -0.5453317818018535 -6.7558317498047185 4.485573553020993 -0.16909623625353792 -1.5753938188331889 0.04493723216650428 0.013871262602409286 -56.22636674844348 -0.01205318188559556 0.029471595142738307 -56.254614919205295 -38.76739160519042 0.04746040738287631 0.001739995780057 0.003691892919797606 0.02059758305485277 0.011801200849930256 0.01580520594044611 -0.012014701122307143 0.00925428253207774 -36.652366867302234 -0.009939481751168239 -0.0035255049421766067 0.020406699551412767 0.04737472194164686 0.034927741669677784 -0.014454213574580033 0.031144064519599425 0.037079849501514696 -19.767330302357827 -0.016658294103550825 -0.04159956078629549 -0.02822044735727619 0.037664857363826534 -0.023379509630578773 0.0042187604275484205 -0.0189859011080242 0.013977515927576095 24.031214100158707 -0.04081151193304902 -0.009846931466256672 28.88448666512723 -0.032209943114654874 -0.023364982484331765 28.907698772509423 0.015796417874479236 -0.008493716304079824 9.60874219149596 2.1266156282444864 12.865903501094714 -70.69930391019943 30.561430423365774 -10.932571105397052 -12.278889584876648 -10.903316961923112 -65.2849638090649 -12.517976105767499 -3.582016941691752 4.228782834521638 -0.44170635260546925 0.09865872421605368 -8.08537586681379 0.032296723785359804 0.028443247178971506 44.58012403965993 -0.03260407301860821 0.0020233739967381197 44.52830512172622 12.442093009434021 0.03157347766635335 -0.0458647963842595 0.032862406048656985 0.03802767521415636 -0.042864110843349436 -0.04454004549285804 0.0018459423608017 -0.020227487137962383 11.095826089663925 0.027389206591071247 -0.047628037741254105 0.04879462648847289 0.02679183051603083 0.049424259844281164 0.004316204496012077 -0.004636645942488602 0.013658065675039842 4.802435229080433 -0.04696531040707492 0.0478400702769549 -0.04085987591850855 0.018901730018581135 0.021604795229639998 -0.040632051013789104 0.041234167767070215 -0.004918180149660979 -5.60713761097911 -0.04899444454099251 0.014315250759833151 -6.692035256063374 0.03943962730962808 0.00652546525957211 -6.741980005722517 0.0021012020617987045 -0.032097477760014904 0.0023141833313419465 -0.03613210537742526 0.027915924234148404 8.029847373558356 3.5106291937937515 -19.192439071606515 0.03287603479098584 10.411265648374716 -0.02395577977100778 -5.615381843962037 -15.692127638135968 3.2293719586049683 -0.03824952332365897 -0.013726858525946897 0.0017685064094456358 0.019185388559938243 4.717191904238543 -0.045489914707783484 12.483274413302059 -8.269642730116189 6.8874394456505845 -0.03852147473464596 46.41358806746558 0.04410321467546219 -4.361547511865113 -14.745919704453183 -3.8399152796343086 0.0031830555760896514 0.025597589041227924 0.003871949658193737 0.0160222502554613 -10.721271517867565 0.0065890695839723925 
-0.03116496071887927 -0.03391181329330598 0.028972985318068963 -0.009308926604980382 0.007875513151612612 -0.04278085047382958 -3.3800397644076026 0.5340755614885359 -0.8088791086523351 -1.0328133255114773 3.5461546470483882 0.40539643752009896 -1.2073425046247037 -2.379619243690156 -2.306577074323699 -1.4648913137985653 0.1847781694885114 -0.8901615627117839 -1.310490068563662 13.375252401040559 4.840463253802599 0.37391745069042603 0.246754507050877 11.702410980658655 -1.0582962953929211 -14.817361599197577 0.9214919670708336 -6.483129492880109 2.424389360137045 -15.378050346859041 66.97395876534381 16.386593654587447 -1.5112973898898479 -17.532967702824692 -2.991379967534963 91.81382649502744 26.152340309295827 -0.5815069905029159 -7.178933241930915 4.493829858424428 -0.11438423342101811 -1.6368959664844054 -0.015866454027020957 -0.007879085569012387 -56.231108199219065 -0.0014953609514805073 0.033097435396625005 -56.27787566301113 -38.79434741670685 0.03845321111208544 -0.04672827015988991 0.0314108546884791 0.0010704054875953026 -0.009177779892720254 -0.028082744355471898 0.049306449112646804 -0.00802202194666479 -36.68750624500751 0.040402747316626623 -0.0008691715653339794 0.02639736778136426 0.04530427827325788 -0.045687792918622516 -0.043017824890010166 -0.010717254405996177 -0.020722075669745446 -19.734146641311792 -0.040099528609015694 -0.030076960936346517 0.02891818235765706 -0.03890336118789615 0.011572001978838778 0.04209369017283891 -0.012885586474853047 0.02673812067880921 24.072711724043423 0.024376807507220273 -0.030402360879830132 28.901227513005246 -0.0033324792227220953 -0.02528131899940054 28.840420068812787 -0.003692218143553921 -0.013634244002603328 9.661151415773764 2.14313657932883 12.81568529940183 -70.35129542205807 30.3203453012191 -11.572078280630702 -12.389106311214162 -11.151509994807846 -66.33447858264029 -13.115072695351065 -4.371408947307792 4.7493760365099655 -0.46235809620560253 0.09336578852285643 -8.14998482962574 -0.04784803845877902 0.013153094521182608 44.599293804481434 0.0029061363218443373 0.014353508451396102 44.58090001781751 12.459780199037404 0.04721956784351613 0.0045869540303181055 -0.00021202243846431382 -0.013990875132126619 0.04892731776936307 0.041123927268637436 -0.0011617520133407181 0.007045757520708882 11.145524072811615 -0.018592510537013603 0.008053734672323143 0.003314077022290462 -0.030116194901784934 -0.0020145804012096018 -0.012056010068094774 -0.011341233518199757 0.03523484927842024 4.736817860720032 -0.029672831335274864 -0.006353807242530381 -0.006825071984809673 0.036337867585942034 -0.013085560834981884 -0.0038807358527069183 -0.023061118420472166 0.020191407847293674 -5.5514419845829135 0.042777192626915976 0.033364565470895474 -6.67562502270683 -0.028795423761558445 0.022806499573499076 -6.697721608733092 -0.013896547653277629 0.02245726330347715 0.04998795365997665 0.013549154170159998 -0.0004451511822822436 8.007691689653239 3.4911298638750448 -19.211815022241495 -0.034239961975616476 10.36160178295219 0.05186180763005091 -5.661741513561996 -15.658381947219082 3.2326535888155425 0.01929703962096867 0.042123227795249844 0.03806834824776564 -0.007056065077036279 4.707403751718162 0.0044374006195302355 12.453854681889933 -8.195139325456118 6.9247526856374115 -0.020601159167209827 46.351790672077215 0.006870257457178438 -4.280965064329394 -14.771423583981747 -3.8069420511297722 -0.014904374343082581 0.013937786899961098 -0.039692850822591136 -0.03885930050590973 -10.702071898191031 -0.03970106488230978 
-0.02320161073807941 -0.026560791660735425 -0.0027979761859602483 0.017936264969846776 0.037450757143008793 -0.010014731955693149 -3.083246671249811 0.4414397513109772 -0.8838133799005068 -1.0014998930778198 3.4535435273250092 0.3490658776349188 -1.1499957841710855 -2.382360226516765 -2.2108633109775844 -1.2635571047502723 0.24963571771085638 -0.8931695900306772 -1.1803622995003755 13.345622776265822 4.352882823851095 0.41411451146938943 0.45982710530367416 10.510847089101837 -0.9524353330578582 -14.45471322095364 0.851441624950484 -6.328644872944405 2.3972728776354093 -15.362842026655235 66.77938682360723 18.371121596551408 -0.8523153160504908 -19.077517642186194 -2.737269322912382 92.62861848020364 26.31439638397029 -0.5253465947237392 -7.565193794761592 4.56929776247873 -0.12033725056421973 -1.5953703619056971 0.010486163694861361 -0.006764557380597522 -56.239703333289434 -0.030247539081124635 0.01018875442931491 -56.22950138182678 -38.81883143111616 0.018725994504854352 0.01444131164228424 0.034057053326963106 0.010063102418643877 0.02327315274389188 -0.02732991716263178 -0.04196115795128198 0.015506472507816558 -36.65877842392605 -0.03824528912138642 0.03737029816458638 0.04373626707750922 -0.02495530280570737 0.022342617357540236 0.01688036824286549 -0.017940142993237707 0.033001325520612385 -19.712483367380234 -0.016826740132859067 -0.04113962741626453 0.03535585854778107 -0.022184579217881206 0.04282605817152431 -0.03832011934331103 -0.02217275856624651 0.0343963940096701 24.019612005061475 0.029165065966370803 -0.024608258405271394 28.869705050917297 -0.035600752727414475 0.026214702975967983 28.860485269207878 0.029176562678415088 -0.01935638853617493 9.401571640085221 2.125728504475662 12.829404928178947 -70.10920905336907 30.43251185522097 -11.638101528511353 -12.885991061789372 -10.847695858469764 -66.71099855436545 -13.582018820173305 -4.839802693141133 4.982816153044623 -0.47369861999892915 0.08504826874712379 -8.077037346465778 0.02375073284128075 -0.021489527743026305 44.55496195555068 -0.00637091500202134 -0.007202290193218275 44.595544487253584 12.464796292485508 -0.03858517403708563 -0.0309534447604729 -0.018021822526165288 0.0001890616150328193 0.025987654519365376 0.021947548721032793 -0.043945347222708334 0.0010724249383275962 11.111348329712538 0.045228979257743 -0.005297336768066202 -0.027888154060958122 0.031193751245176038 0.015678586837201035 -0.021165975113315923 0.006663455400568091 0.008973622746017953 4.75472649641144 0.019728408054896375 0.005945833385719176 -0.014389628759575094 0.04546172078082597 -0.007754071421851531 -0.04617603034297518 -0.0017278751832274035 -2.700959401652347e-06 -5.602815756137244 -0.001641917676032051 0.006611767048959036 -6.680297889884869 0.011645492653143132 -0.023764843453225427 -6.751659810338241 0.03881131382322985 -0.0029113776715456743 -0.00031171275387934937 -0.0068337147620853 -0.025399835939852358 8.037263957183855 3.505244321076347 -19.228993453892393 0.021283385276832816 10.361823280505885 0.04502946098954781 -5.6331534064816235 -15.674889413094984 3.239020300397113 0.005230689811679639 -0.03725021104856816 0.02807626174181288 0.0017525971022035584 4.704165443725508 0.02477453305674276 12.420690056292777 -8.243281599204058 6.874153435825358 0.03321650257609237 46.365336347183224 -0.030729622454027848 -4.333470807284534 -14.70905771217831 -3.854862538676442 -0.03655696817524469 -0.010093978644770775 0.004865192752208857 -0.029482879183632994 -10.733319834794365 -0.030831194475568643 
